<?xml version="1.0" encoding="UTF-8" standalone="no"?>
<svg
   id="svg4306"
   width="22"
   height="22"
   version="1.1"
   style="enable-background:new"
   sodipodi:docname="close.svg"
   inkscape:version="1.3.2 (1:1.3.2+202311252150+091e20ef0f)"
   xmlns:inkscape="http://www.inkscape.org/namespaces/inkscape"
   xmlns:sodipodi="http://sodipodi.sourceforge.net/DTD/sodipodi-0.dtd"
   xmlns:xlink="http://www.w3.org/1999/xlink"
   xmlns="http://www.w3.org/2000/svg"
   xmlns:svg="http://www.w3.org/2000/svg"
   xmlns:rdf="http://www.w3.org/1999/02/22-rdf-syntax-ns#"
   xmlns:cc="http://creativecommons.org/ns#"
   xmlns:dc="http://purl.org/dc/elements/1.1/">
  <style
     type="text/css"
     id="current-color-scheme">
      .ColorScheme-Highlight {
        color:#3daee9;
      }
   </style>
  <metadata
     id="metadata40">
    <rdf:RDF>
      <cc:Work
         rdf:about="">
        <dc:format>image/svg+xml</dc:format>
        <dc:type
           rdf:resource="http://purl.org/dc/dcmitype/StillImage" />
      </cc:Work>
    </rdf:RDF>
  </metadata>
  <defs
     id="defs38">
    <linearGradient
       id="linearGradient18"
       inkscape:collect="always">
      <stop
         style="stop-color:#242424;stop-opacity:1;"
         offset="0"
         id="stop18" />
      <stop
         style="stop-color:#2a2e32;stop-opacity:1;"
         offset="1"
         id="stop19" />
    </linearGradient>
    <linearGradient
       id="linearGradient7"
       inkscape:collect="always">
      <stop
         style="stop-color:#242424;stop-opacity:1;"
         offset="0"
         id="stop7" />
      <stop
         style="stop-color:#2a2e32;stop-opacity:1;"
         offset="1"
         id="stop8" />
    </linearGradient>
    <linearGradient
       inkscape:collect="always"
       xlink:href="#linearGradient7"
       id="linearGradient8"
       x1="-11.000001"
       y1="39.418892"
       x2="-11.000001"
       y2="26.581114"
       gradientUnits="userSpaceOnUse"
       gradientTransform="matrix(0.9474398,0,0,0.93474124,-0.57816155,2.1535374)" />
    <filter
       inkscape:collect="always"
       style="color-interpolation-filters:sRGB"
       id="filter13"
       x="-0.023519999"
       y="-0.023519999"
       width="1.04704"
       height="1.04704">
      <feGaussianBlur
         inkscape:collect="always"
         stdDeviation="0.14623729"
         id="feGaussianBlur13" />
    </filter>
    <filter
       inkscape:collect="always"
       style="color-interpolation-filters:sRGB"
       id="filter14"
       x="-0.023519999"
       y="-0.023519999"
       width="1.04704"
       height="1.04704">
      <feGaussianBlur
         inkscape:collect="always"
         stdDeviation="0.14623727"
         id="feGaussianBlur14" />
    </filter>
    <filter
       inkscape:collect="always"
       style="color-interpolation-filters:sRGB"
       id="filter15"
       x="-0.023519999"
       y="-0.023519999"
       width="1.04704"
       height="1.04704">
      <feGaussianBlur
         inkscape:collect="always"
         stdDeviation="0.14623727"
         id="feGaussianBlur15" />
    </filter>
    <filter
       inkscape:collect="always"
       style="color-interpolation-filters:sRGB"
       id="filter16"
       x="-0.02352"
       y="-0.02352"
       width="1.04704"
       height="1.04704">
      <feGaussianBlur
         inkscape:collect="always"
         stdDeviation="0.14427725"
         id="feGaussianBlur16" />
    </filter>
    <filter
       inkscape:collect="always"
       style="color-interpolation-filters:sRGB"
       id="filter17"
       x="-0.023362381"
       y="-0.023679762"
       width="1.0467248"
       height="1.0473595">
      <feGaussianBlur
         inkscape:collect="always"
         stdDeviation="0.14525726"
         id="feGaussianBlur17" />
    </filter>
    <filter
       inkscape:collect="always"
       style="color-interpolation-filters:sRGB"
       id="filter18"
       x="-0.023372733"
       y="-0.023669137"
       width="1.0467455"
       height="1.0473383">
      <feGaussianBlur
         inkscape:collect="always"
         stdDeviation="0.14519208"
         id="feGaussianBlur18" />
    </filter>
    <linearGradient
       inkscape:collect="always"
       xlink:href="#linearGradient18"
       id="linearGradient19"
       x1="-11"
       y1="17"
       x2="-11"
       y2="5"
       gradientUnits="userSpaceOnUse" />
  </defs>
  <sodipodi:namedview
     inkscape:document-rotation="0"
     pagecolor="#b1b7bf"
     bordercolor="#000000"
     borderopacity="1"
     objecttolerance="10"
     gridtolerance="10"
     guidetolerance="10"
     inkscape:pageopacity="1"
     inkscape:pageshadow="2"
     inkscape:window-width="3440"
     inkscape:window-height="1356"
     id="namedview36"
     showgrid="true"
     inkscape:snap-bbox="true"
     inkscape:bbox-nodes="true"
     inkscape:zoom="14.92"
     inkscape:cx="-17.627346"
     inkscape:cy="18.029491"
     inkscape:window-x="0"
     inkscape:window-y="0"
     inkscape:window-maximized="1"
     inkscape:current-layer="svg4306"
     inkscape:lockguides="false"
     showguides="true"
     inkscape:pagecheckerboard="false"
     inkscape:showpageshadow="2"
     inkscape:deskcolor="#cccfd6"
     guidecolor="#9e9400"
     guideopacity="1">
    <inkscape:grid
       id="grid7"
       units="px"
       originx="0"
       originy="0"
       spacingx="1"
       spacingy="1"
       empcolor="#0099e5"
       empopacity="0.30196078"
       color="#0099e5"
       opacity="0.14902"
       empspacing="5"
       dotted="false"
       gridanglex="30"
       gridanglez="30"
       visible="true" />
  </sodipodi:namedview>
  <style
     type="text/css"
     id="style1" />
  <g
     id="inactive-center"
     transform="translate(-44,22)">
    <rect
       style="opacity:0.00100002;fill:#050505;fill-opacity:1;stroke-width:1.001"
       id="calque-ic"
       width="22"
       height="22"
       x="0"
       y="0"/>
    <path
       id="cercle-ic"
       class="ColorScheme-Highlight"
       style="opacity:1;fill:currentColor;fill-opacity:0.9;stroke-width:1.125;enable-background:new"
       d="M 10.9,2 C 5.92953,2 1.9,6.029441 1.9,10.999998 1.9,15.970557 5.92953,20 10.9,20 c 4.97048,0 9,-4.029443 9,-9.000002 C 19.9,6.029441 15.87048,2 10.9,2 Z m 0,4 C 13.8,6 16,8 16,10.999998 16,13.999996 13.8,16 10.9,16 8,16 6,13.999996 6,10.999998 6,8 8,6 10.9,6 Z"
       sodipodi:nodetypes="ssssszzzzz"/>
    <rect
       style="display:inline;fill:#2a2e32;fill-opacity:1;stroke:none;stroke-width:0.368045;enable-background:new;filter:url(#filter16)"
       id="centre-ic"
       width="14.722168"
       height="14.722168"
       x="3.5389113"
       y="3.6389117"
       ry="7.3610721"
       rx="7.361084"/>
  </g>
  <g
     id="hover-inactive-center"
     style="enable-background:new">
    <rect
       y="22"
       x="-22"
       height="22"
       width="22"
       id="calque-hic"
       style="opacity:0.00100002;fill:#050505;fill-opacity:1;stroke-width:1.001"/>
    <path
       id="cercle-hic"
       class="ColorScheme-Highlight"
       style="opacity:1;fill:currentColor;fill-opacity:0.9;stroke-width:1.125;enable-background:new"
       d="M -11.000001,24 C -15.97047,24 -20,28.029441 -20,32.999998 -20,37.970557 -15.97047,42 -11.000001,42 c 4.97048,0 9,-4.029443 9,-9.000002 0,-4.970557 -4.02952,-8.999998 -9,-8.999998 z m 0,4 C -8.000002,28 -6,30 -6,32.999998 -6,35.999996 -8,38 -11.000001,38 -14.000002,38 -16,35.999996 -16,32.999998 -16,30 -14,28 -11.000001,28 Z"
       sodipodi:nodetypes="ssssszzzzz"/>
    <rect
       style="display:inline;fill:url(#linearGradient8);fill-opacity:1;stroke:none;stroke-width:0.370537;enable-background:new;filter:url(#filter17)"
       id="centre-hic"
       width="14.922171"
       height="14.722168"
       x="-18.461088"
       y="25.638912"
       ry="7.3610721"
       rx="7.4610853"/>
  </g>
  <g
     id="pressed-inactive-center"
     style="enable-background:new">
    <rect
       y="22"
       x="0"
       height="22"
       width="22"
       id="calque-pic"
       style="opacity:0.00100002;fill:#050505;fill-opacity:1;stroke-width:1.001"/>
    <path
       id="cercle-pic"
       class="ColorScheme-Highlight"
       style="opacity:1;fill:currentColor;fill-opacity:0.9;stroke-width:1.125;enable-background:new"
       d="M 11,24 C 6.02953,24 2,28.029441 2,32.999998 2,37.970557 6.02953,42 11,42 15.97048,42 20,37.970557 20,32.999998 20,28.029441 15.97048,24 11,24 Z m 0,4 c 3,0 5,1.999996 5,4.999998 C 16,36 14,38 11,38 8,38 6,35.999996 6,32.999998 6,30 8,28 11,28 Z"
       sodipodi:nodetypes="ssssszzzzz"/>
    <rect
       style="display:inline;fill:#1e2022;fill-opacity:1;stroke:none;stroke-width:0.370372;enable-background:new;filter:url(#filter18)"
       id="centre-pic"
       width="14.908869"
       height="14.722168"
       x="3.5389106"
       y="25.638912"
       ry="7.3610725"
       rx="7.4544344"/>
  </g>
  <g
     id="active-center"
     transform="translate(-44)"
     style="enable-background:new">
    <rect
       style="opacity:0.00100002;fill:#050505;fill-opacity:1;stroke-width:1.001;enable-background:new"
       id="calque-ac"
       width="22"
       height="22"
       x="0"
       y="0"/>
    <path
       id="cercle-ac"
       class="ColorScheme-Highlight"
       style="display:inline;opacity:1;fill:currentColor;fill-opacity:0.9;stroke-width:1.125;enable-background:new"
       d="M 11,2 C 6.02953,2 2,6.0294414 2,10.999998 2,15.970557 6.02953,20 11,20 15.97048,20 20,15.970557 20,10.999998 20,6.0294414 15.97048,2 11,2 Z m 0,4 c 3,0 5,1.999996 5,4.999998 C 16,14 14,16 11,16 8,16 6,13.999996 6,10.999998 6,8 8,6 11,6 Z"
       sodipodi:nodetypes="ssssszzzzz"/>
    <rect
       style="display:inline;fill:#2a2e32;fill-opacity:1;stroke:none;stroke-width:0.373045;filter:url(#filter15)"
       id="centre-ac"
       width="14.922171"
       height="14.922171"
       x="3.5389111"
       y="3.5389121"
       ry="7.4610734"
       rx="7.4610853"/>
  </g>
  <g
     id="hover-center"
     style="enable-background:new">
    <rect
       style="opacity:0.00100002;fill:#050505;fill-opacity:1;stroke-width:1.001"
       id="calque-hc"
       width="22"
       height="22"
       x="-22"
       y="0"/>
    <path
       id="cercle-hc"
       class="ColorScheme-Highlight"
       style="display:inline;fill:currentColor;fill-opacity:0.9;stroke-width:1.125;enable-background:new"
       d="m -11,2 c -4.97047,0 -9,4.0294414 -9,8.999998 C -20,15.970557 -15.97047,20 -11,20 -6.02952,20 -2,15.970557 -2,10.999998 -2,6.0294414 -6.02952,2 -11,2 Z m 0,4 c 3,0 5,2 5,4.999998 C -6,13.999996 -8,16 -11,16 -14,16 -16,13.999996 -16,10.999998 -16,8 -14,6 -11,6 Z"
       sodipodi:nodetypes="ssssszzzzz"/>
    <rect
       style="display:inline;fill:url(#linearGradient19);fill-opacity:1;stroke:none;stroke-width:0.373045;enable-background:new;filter:url(#filter14)"
       id="centre-hc"
       width="14.922171"
       height="14.922171"
       x="-18.461088"
       y="3.5389121"
       ry="7.4610734"
       rx="7.4610853"/>
  </g>
  <g
     id="pressed-center"
     inkscape:label="pressed-center">
    <rect
       style="opacity:0.00100002;fill:#050505;fill-opacity:1;stroke-width:1.001"
       id="calque-pc"
       width="22"
       height="22"
       x="0"
       y="0"/>
    <path
       id="cercle-pc"
       class="ColorScheme-Highlight"
       style="opacity:1;fill:currentColor;fill-opacity:0.9;stroke-width:1.125;enable-background:new"
       d="M 11,2 C 6.02953,2 2,6.0294414 2,10.999998 2,15.970557 6.02953,20 11,20 15.97048,20 20,15.970557 20,10.999998 20,6.0294414 15.97048,2 11,2 Z m 0,4 c 3,0 5,2 5,4.999998 C 16,13.999996 14,16 11,16 8,16 6,13.999996 6,10.999998 6,8 8,6 11,6 Z"
       sodipodi:nodetypes="ssssszzzzz"/>
    <rect
       style="display:inline;fill:#1e2022;fill-opacity:1;stroke:none;stroke-width:0.373045;enable-background:new;filter:url(#filter13)"
       id="centre-pc"
       width="14.922173"
       height="14.922173"
       x="3.5389106"
       y="3.5389121"
       ry="7.4610739"
       rx="7.4610863"/>
  </g>
</svg>
