<?xml version="1.0" encoding="UTF-8" standalone="no"?>
<svg
   id="svg4306"
   width="22"
   height="22"
   version="1.1"
   style="enable-background:new"
   sodipodi:docname="close.svg"
   inkscape:version="1.1.2 (0a00cf5339, 2022-02-04)"
   xmlns:inkscape="http://www.inkscape.org/namespaces/inkscape"
   xmlns:sodipodi="http://sodipodi.sourceforge.net/DTD/sodipodi-0.dtd"
   xmlns:xlink="http://www.w3.org/1999/xlink"
   xmlns="http://www.w3.org/2000/svg"
   xmlns:svg="http://www.w3.org/2000/svg"
   xmlns:rdf="http://www.w3.org/1999/02/22-rdf-syntax-ns#"
   xmlns:cc="http://creativecommons.org/ns#"
   xmlns:dc="http://purl.org/dc/elements/1.1/">
  <g
     id="pressed-inactive-center">
    <rect
       y="22"
       x="0"
       height="22"
       width="22"
       id="rect953-2-7-6-5"
       style="opacity:0.00100002;fill:#050505;fill-opacity:1;stroke-width:1.001" />
    <path
       id="path839-3-36-3"
       style="fill:#2ba5ff;fill-opacity:0.42;stroke-width:1.125;filter:url(#filter875);enable-background:new"
       d="M 11,24 C 6.02953,24 2,28.029441 2,32.999998 2,37.970557 6.02953,42 11,42 15.97048,42 20,37.970557 20,32.999998 20,28.029441 15.97048,24 11,24 Z m 0,1.125 c 4.34919,0 7.875,3.525746 7.875,7.874998 C 18.875,37.349232 15.34919,40.875 11,40.875 6.6508,40.875 3.125,37.349232 3.125,32.999998 3.125,28.650746 6.6508,25.125 11,25.125 Z m 0,0 z"
       sodipodi:nodetypes="ssssssssssccccc" />
    <rect
       style="fill:#1e2022;fill-opacity:1;stroke:none;stroke-width:0.39374;filter:url(#filter949);enable-background:new"
       id="center-3-35-5-7-6"
       width="15.749992"
       height="15.749992"
       x="3.125"
       y="25.125"
       ry="7.8749838"
       rx="7.8749962" />
    <g
       id="hover-center-1"
       style="display:inline;enable-background:new"
       transform="translate(-69.528786,13.309329)">
      <rect
         style="opacity:0.00100002;fill:#050505;fill-opacity:1;stroke-width:1.001"
         id="rect953-2-7-2-5"
         width="22"
         height="22"
         x="-22"
         y="0" />
    </g>
  </g>
  <g
     id="hover-center">
    <rect
       style="opacity:0.00100002;fill:#050505;fill-opacity:1;stroke-width:1.001"
       id="rect953-2-7-2"
       width="22"
       height="22"
       x="-22"
       y="0" />
    <path
       id="path839-3-3"
       style="fill:#2ba5ff;fill-opacity:0.42;stroke-width:1.125;filter:url(#filter859);enable-background:new"
       d="m -11,2 c -4.97047,0 -9,4.0294414 -9,8.999998 C -20,15.970557 -15.97047,20 -11,20 -6.02952,20 -2,15.970557 -2,10.999998 -2,6.0294414 -6.02952,2 -11,2 Z m 0,1.1249999 c 4.34919,0 7.875,3.5257465 7.875,7.8749981 0,4.349234 -3.52581,7.875002 -7.875,7.875002 -4.3492,0 -7.875,-3.525768 -7.875,-7.875002 0,-4.3492516 3.5258,-7.8749981 7.875,-7.8749981 z m 0,0 z"
       sodipodi:nodetypes="ssssssssssccccc" />
    <rect
       style="mix-blend-mode:normal;fill:url(#linearGradient1440);fill-opacity:1;stroke:none;stroke-width:0.39374;filter:url(#filter933);enable-background:new"
       id="center-3-35-5-6"
       width="15.749992"
       height="15.749992"
       x="-18.875"
       y="3.125001"
       ry="7.8749962"
       rx="7.8749962" />
  </g>
  <g
     id="active-center"
     transform="translate(-44)">
    <rect
       style="opacity:0.00100002;fill:#050505;fill-opacity:1;stroke-width:1.001;enable-background:new"
       id="rect953-2-7-2-75"
       width="22"
       height="22"
       x="0"
       y="0" />
    <path
       id="path839-3"
       style="fill:#2ba5ff;fill-opacity:0.42;stroke-width:1.125;filter:url(#filter863);enable-background:new"
       d="M 11,2 C 6.02953,2 2,6.0294414 2,10.999998 2,15.970557 6.02953,20 11,20 15.97048,20 20,15.970557 20,10.999998 20,6.0294414 15.97048,2 11,2 Z m 0,1.1249999 c 4.34919,0 7.875,3.5257465 7.875,7.8749981 0,4.349234 -3.52581,7.875002 -7.875,7.875002 -4.3492,0 -7.875,-3.525768 -7.875,-7.875002 0,-4.3492516 3.5258,-7.8749981 7.875,-7.8749981 z m 0,0 z"
       sodipodi:nodetypes="ssssssssssccccc" />
    <rect
       style="mix-blend-mode:normal;fill:#2a2e32;fill-opacity:1;stroke:none;stroke-width:0.39374;filter:url(#filter937)"
       id="center-3-35-5"
       width="15.749992"
       height="15.749992"
       x="3.125"
       y="3.125001"
       ry="7.8749838"
       rx="7.8749962" />
  </g>
  <metadata
     id="metadata40">
    <rdf:RDF>
      <cc:Work
         rdf:about="">
        <dc:format>image/svg+xml</dc:format>
        <dc:type
           rdf:resource="http://purl.org/dc/dcmitype/StillImage" />
      </cc:Work>
    </rdf:RDF>
  </metadata>
  <defs
     id="defs38">
    <linearGradient
       inkscape:collect="always"
       id="linearGradient8662-6">
      <stop
         style="stop-color:#2a2e32;stop-opacity:1"
         offset="0"
         id="stop1411" />
      <stop
         style="stop-color:#242424;stop-opacity:1"
         offset="1"
         id="stop1413" />
    </linearGradient>
    <linearGradient
       inkscape:collect="always"
       xlink:href="#linearGradient8662-6"
       id="linearGradient1440"
       x1="-11.239236"
       y1="4.2304726"
       x2="-11.239236"
       y2="16.685385"
       gradientUnits="userSpaceOnUse" />
    <linearGradient
       inkscape:collect="always"
       xlink:href="#linearGradient8662-6"
       id="linearGradient1466"
       x1="-11.027568"
       y1="26.099113"
       x2="-11.027568"
       y2="38.331005"
       gradientUnits="userSpaceOnUse" />
    <filter
       inkscape:collect="always"
       style="color-interpolation-filters:sRGB"
       id="filter855"
       x="-0.0030000001"
       y="-0.0030000001"
       width="1.006"
       height="1.006">
      <feGaussianBlur
         inkscape:collect="always"
         stdDeviation="0.0225"
         id="feGaussianBlur857" />
    </filter>
    <filter
       inkscape:collect="always"
       style="color-interpolation-filters:sRGB"
       id="filter859"
       x="-0.0030000001"
       y="-0.0030000001"
       width="1.006"
       height="1.006">
      <feGaussianBlur
         inkscape:collect="always"
         stdDeviation="0.0225"
         id="feGaussianBlur861" />
    </filter>
    <filter
       inkscape:collect="always"
       style="color-interpolation-filters:sRGB"
       id="filter863"
       x="-0.0030000001"
       y="-0.0030000001"
       width="1.006"
       height="1.006">
      <feGaussianBlur
         inkscape:collect="always"
         stdDeviation="0.0225"
         id="feGaussianBlur865" />
    </filter>
    <filter
       inkscape:collect="always"
       style="color-interpolation-filters:sRGB"
       id="filter867"
       x="-0.0030000001"
       y="-0.0030000001"
       width="1.006"
       height="1.006">
      <feGaussianBlur
         inkscape:collect="always"
         stdDeviation="0.0225"
         id="feGaussianBlur869" />
    </filter>
    <filter
       inkscape:collect="always"
       style="color-interpolation-filters:sRGB"
       id="filter871"
       x="-0.003"
       y="-0.0029999999"
       width="1.006"
       height="1.006">
      <feGaussianBlur
         inkscape:collect="always"
         stdDeviation="0.022499999"
         id="feGaussianBlur873" />
    </filter>
    <filter
       inkscape:collect="always"
       style="color-interpolation-filters:sRGB"
       id="filter875"
       x="-0.0030000001"
       y="-0.0030000001"
       width="1.006"
       height="1.006">
      <feGaussianBlur
         inkscape:collect="always"
         stdDeviation="0.0225"
         id="feGaussianBlur877" />
    </filter>
    <filter
       inkscape:collect="always"
       style="color-interpolation-filters:sRGB"
       id="filter929"
       x="-0.075"
       y="-0.075"
       width="1.15"
       height="1.15">
      <feGaussianBlur
         inkscape:collect="always"
         stdDeviation="0.49218726"
         id="feGaussianBlur931" />
    </filter>
    <filter
       inkscape:collect="always"
       style="color-interpolation-filters:sRGB"
       id="filter933"
       x="-0.075"
       y="-0.075"
       width="1.15"
       height="1.15">
      <feGaussianBlur
         inkscape:collect="always"
         stdDeviation="0.49218726"
         id="feGaussianBlur935" />
    </filter>
    <filter
       inkscape:collect="always"
       style="color-interpolation-filters:sRGB"
       id="filter937"
       x="-0.075"
       y="-0.075"
       width="1.15"
       height="1.15">
      <feGaussianBlur
         inkscape:collect="always"
         stdDeviation="0.49218726"
         id="feGaussianBlur939" />
    </filter>
    <filter
       inkscape:collect="always"
       style="color-interpolation-filters:sRGB"
       id="filter941"
       x="-0.075"
       y="-0.075"
       width="1.15"
       height="1.15">
      <feGaussianBlur
         inkscape:collect="always"
         stdDeviation="0.49218726"
         id="feGaussianBlur943" />
    </filter>
    <filter
       inkscape:collect="always"
       style="color-interpolation-filters:sRGB"
       id="filter945"
       x="-0.075"
       y="-0.075"
       width="1.15"
       height="1.15">
      <feGaussianBlur
         inkscape:collect="always"
         stdDeviation="0.49218726"
         id="feGaussianBlur947" />
    </filter>
    <filter
       inkscape:collect="always"
       style="color-interpolation-filters:sRGB"
       id="filter949"
       x="-0.075"
       y="-0.075"
       width="1.15"
       height="1.15">
      <feGaussianBlur
         inkscape:collect="always"
         stdDeviation="0.49218726"
         id="feGaussianBlur951" />
    </filter>
  </defs>
  <sodipodi:namedview
     inkscape:document-rotation="0"
     pagecolor="#ffffff"
     bordercolor="#000000"
     borderopacity="1"
     objecttolerance="10"
     gridtolerance="10"
     guidetolerance="10"
     inkscape:pageopacity="0"
     inkscape:pageshadow="2"
     inkscape:window-width="3440"
     inkscape:window-height="1356"
     id="namedview36"
     showgrid="false"
     inkscape:snap-bbox="true"
     inkscape:bbox-nodes="true"
     inkscape:zoom="20.93"
     inkscape:cx="-1.9111323"
     inkscape:cy="24.653607"
     inkscape:window-x="0"
     inkscape:window-y="0"
     inkscape:window-maximized="1"
     inkscape:current-layer="pressed-center"
     inkscape:lockguides="false"
     showguides="false"
     inkscape:pagecheckerboard="0"
     inkscape:showpageshadow="2"
     inkscape:deskcolor="#cccccc">
    <inkscape:grid
       type="xygrid"
       id="grid865"
       originx="-44"
       originy="0" />
  </sodipodi:namedview>
  <style
     type="text/css"
     id="current-color-scheme" />
  <g
     id="g1546"
     transform="translate(-44)" />
  <g
     id="inactive-center"
     transform="translate(-44,22)">
    <rect
       style="opacity:0.00100002;fill:#050505;fill-opacity:1;stroke-width:1.001"
       id="rect953-2"
       width="22"
       height="22"
       x="0"
       y="0" />
    <path
       id="path839-3-36"
       style="fill:#2ba5ff;fill-opacity:0.42;stroke-width:1.125;filter:url(#filter867);enable-background:new"
       d="M 10.9,2 C 5.92953,2 1.9,6.029441 1.9,10.999998 1.9,15.970557 5.92953,20 10.9,20 c 4.97048,0 9,-4.029443 9,-9.000002 C 19.9,6.029441 15.87048,2 10.9,2 Z m 0,1.125 c 4.34919,0 7.875,3.525746 7.875,7.874998 0,4.349234 -3.52581,7.875002 -7.875,7.875002 -4.3492,0 -7.875,-3.525768 -7.875,-7.875002 C 3.025,6.650746 6.5508,3.125 10.9,3.125 Z m 0,0 z"
       sodipodi:nodetypes="ssssssssssccccc" />
    <rect
       style="mix-blend-mode:normal;fill:#2a2e32;fill-opacity:1;stroke:none;stroke-width:0.39374;filter:url(#filter941);enable-background:new"
       id="center-3-35-5-7"
       width="15.749992"
       height="15.749992"
       x="3.0249991"
       y="3.1249998"
       ry="7.8749838"
       rx="7.8749962" />
  </g>
  <g
     id="pressed-center">
    <rect
       style="display:inline;opacity:0.00100002;fill:#050505;fill-opacity:1;stroke-width:1.001"
       id="rect953-2-7-6"
       width="22"
       height="22"
       x="0"
       y="0" />
    <path
       id="path839-3-3-3"
       style="display:inline;mix-blend-mode:normal;fill:#2ba5ff;fill-opacity:0.42;stroke-width:1.125;filter:url(#filter855);enable-background:new"
       d="M 11,2 C 6.02953,2 2,6.0294414 2,10.999998 2,15.970557 6.02953,20 11,20 15.97048,20 20,15.970557 20,10.999998 20,6.0294414 15.97048,2 11,2 Z m 0,1.1249999 c 4.34919,0 7.875,3.5257465 7.875,7.8749981 0,4.349234 -3.52581,7.875002 -7.875,7.875002 -4.3492,0 -7.875,-3.525768 -7.875,-7.875002 0,-4.3492516 3.5258,-7.8749981 7.875,-7.8749981 z m 0,0 z"
       sodipodi:nodetypes="ssssssssssccccc" />
    <rect
       style="mix-blend-mode:normal;fill:#1e2022;fill-opacity:1;stroke:none;stroke-width:0.39374;filter:url(#filter929);enable-background:new"
       id="center-3-35-5-6-5"
       width="15.749992"
       height="15.749992"
       x="3.125"
       y="3.1250014"
       ry="7.8749838"
       rx="7.8749962" />
  </g>
  <g
     id="hover-inactive-center">
    <rect
       y="22"
       x="-22"
       height="22"
       width="22"
       id="rect953-2-7-2-7"
       style="opacity:0.00100002;fill:#050505;fill-opacity:1;stroke-width:1.001" />
    <path
       id="path839-3-36-35"
       style="fill:#2ba5ff;fill-opacity:0.42;stroke-width:1.125;filter:url(#filter871);enable-background:new"
       d="M -11.000001,24 C -15.97047,24 -20,28.029441 -20,32.999998 -20,37.970557 -15.97047,42 -11.000001,42 c 4.97048,0 9,-4.029443 9,-9.000002 0,-4.970557 -4.02952,-8.999998 -9,-8.999998 z m 0,1.125 c 4.34919,0 7.875,3.525746 7.875,7.874998 0,4.349234 -3.52581,7.875002 -7.875,7.875002 -4.349199,0 -7.874999,-3.525768 -7.874999,-7.875002 0,-4.349252 3.5258,-7.874998 7.874999,-7.874998 z m 0,0 z"
       sodipodi:nodetypes="ssssssssssccccc" />
    <rect
       style="mix-blend-mode:normal;fill:url(#linearGradient1466);fill-opacity:1;stroke:none;stroke-width:0.39374;filter:url(#filter945);enable-background:new"
       id="center-3-35-5-7-62"
       width="15.749992"
       height="15.749992"
       x="-18.875"
       y="25.125"
       ry="7.8749838"
       rx="7.8749962" />
  </g>
</svg>
