<?xml version="1.0" encoding="UTF-8" standalone="no"?>
<svg
   width="67.999771"
   height="68"
   version="1.1"
   id="svg111"
   xmlns:xlink="http://www.w3.org/1999/xlink"
   xmlns="http://www.w3.org/2000/svg"
   xmlns:svg="http://www.w3.org/2000/svg">
  <style
     type="text/css"
     id="current-color-scheme">
      .ColorScheme-Highlight {
        color:#3daee9;
      }
   </style>
  <defs
     id="pax-round">
    <linearGradient
       id="linearGradient19900">
      <stop
         style="stop-color:#4b4b4b;stop-opacity:0;"
         offset="0"
         id="stop19896" />
      <stop
         style="stop-color:#4d4f51;stop-opacity:1;"
         offset="1"
         id="stop19898" />
    </linearGradient>
    <linearGradient
       id="linearGradient13913">
      <stop
         style="stop-color:#31363b;stop-opacity:1;"
         offset="0"
         id="stop13909" />
      <stop
         style="stop-color:#4d4f51;stop-opacity:1;"
         offset="1"
         id="stop13911" />
    </linearGradient>
    <linearGradient
       id="linearGradient985">
      <stop
         style="stop-color:#000000;stop-opacity:1"
         offset="0"
         id="stop3" />
      <stop
         style="stop-color:#000000;stop-opacity:0"
         offset="1"
         id="stop5" />
    </linearGradient>
    <radialGradient
       r="6"
       fy="11.99998"
       fx="77"
       cy="11.99998"
       cx="77"
       gradientTransform="matrix(0.00946641,-3.5062777,3.4999908,0.00944943,-14.728734,297.87003)"
       gradientUnits="userSpaceOnUse"
       id="radialGradient994-3"
       xlink:href="#linearGradient985" />
    <linearGradient
       gradientTransform="matrix(2.112517,0,0,0.53246625,1909.1575,-17.844383)"
       y2="-35.090481"
       x2="-907.02106"
       y1="-35.090481"
       x1="-916.87653"
       gradientUnits="userSpaceOnUse"
       id="linearGradient4920"
       xlink:href="#linearGradient985" />
    <radialGradient
       r="6"
       fy="11.99998"
       fx="77"
       cy="11.99998"
       cx="77"
       gradientTransform="matrix(3.5062779,0.00946641,-0.00944944,3.4999907,-229.87006,-14.728732)"
       gradientUnits="userSpaceOnUse"
       id="radialGradient994-3-3"
       xlink:href="#linearGradient985" />
    <linearGradient
       xlink:href="#linearGradient985"
       id="linearGradient1874"
       gradientUnits="userSpaceOnUse"
       gradientTransform="matrix(1.2546776,0,0,0.37295731,-85.519445,-381.76397)"
       x1="46.00642"
       y1="930.81604"
       x2="62.620281"
       y2="930.81604" />
    <linearGradient
       y2="930.92523"
       x2="62.693504"
       y1="930.92523"
       x1="46.079639"
       gradientUnits="userSpaceOnUse"
       id="linearGradient4950"
       xlink:href="#linearGradient985"
       gradientTransform="matrix(1.2464973,0,0,0.37169563,-17.050327,-312.6078)" />
    <radialGradient
       r="6"
       fy="11.99998"
       fx="77"
       cy="11.99998"
       cx="77"
       gradientTransform="matrix(-3.5062772,-0.00946642,0.00944943,-3.4999905,297.86999,82.728576)"
       gradientUnits="userSpaceOnUse"
       id="radialGradient994-3-3-1"
       xlink:href="#linearGradient985" />
    <radialGradient
       r="6"
       fy="11.99998"
       fx="77"
       cy="11.99998"
       cx="77"
       gradientTransform="matrix(-0.00946642,3.5062779,-3.4999905,-0.00944943,82.728733,-229.87005)"
       gradientUnits="userSpaceOnUse"
       id="radialGradient994-3-5"
       xlink:href="#linearGradient985" />
    <linearGradient
       xlink:href="#linearGradient985"
       id="linearGradient2064"
       gradientUnits="userSpaceOnUse"
       gradientTransform="matrix(2.3333339,0,0,0.37500021,2178.1806,47.125003)"
       x1="-916.23309"
       y1="-34.872829"
       x2="-907.31018"
       y2="-34.872829" />
    <radialGradient
       r="6"
       fy="11.99998"
       fx="77"
       cy="11.99998"
       cx="77"
       gradientTransform="matrix(0.01487579,-5.5098652,5.4999857,0.01484909,24.85485,602.08129)"
       gradientUnits="userSpaceOnUse"
       id="radialGradient994-3-36"
       xlink:href="#linearGradient985" />
    <radialGradient
       r="6"
       fy="11.99998"
       fx="77"
       cy="11.99998"
       cx="77"
       gradientTransform="matrix(5.5098652,0.01487532,-0.0148491,5.4998127,-312.08161,110.85535)"
       gradientUnits="userSpaceOnUse"
       id="radialGradient994-3-3-3"
       xlink:href="#linearGradient985" />
    <radialGradient
       r="6"
       fy="11.99998"
       fx="77"
       cy="11.99998"
       cx="77"
       gradientTransform="matrix(-5.5098652,-0.01486814,0.0148491,-5.4971584,516.08155,265.13279)"
       gradientUnits="userSpaceOnUse"
       id="radialGradient994-3-3-1-5"
       xlink:href="#linearGradient985" />
    <radialGradient
       r="6"
       fy="11.99998"
       fx="77"
       cy="11.99998"
       cx="77"
       gradientTransform="matrix(-0.01487579,5.5098652,-5.4999857,-0.01484909,179.14511,-226.08304)"
       gradientUnits="userSpaceOnUse"
       id="radialGradient994-3-5-6"
       xlink:href="#linearGradient985" />
    <linearGradient
       xlink:href="#linearGradient985"
       id="linearGradient2929"
       gradientUnits="userSpaceOnUse"
       gradientTransform="matrix(3.3196693,0,0,0.62641768,2866.1046,-80.052677)"
       x1="-916.87653"
       y1="-35.090481"
       x2="-907.02106"
       y2="-35.090481" />
    <linearGradient
       xlink:href="#linearGradient985"
       id="linearGradient2931"
       gradientUnits="userSpaceOnUse"
       gradientTransform="matrix(1.9716359,0,0,0.6215955,-182.38322,-767.62049)"
       x1="46.00642"
       y1="930.81604"
       x2="62.620281"
       y2="930.81604" />
    <linearGradient
       xlink:href="#linearGradient985"
       id="linearGradient2933"
       gradientUnits="userSpaceOnUse"
       gradientTransform="matrix(1.9587813,0,0,0.61949271,22.349568,-389.67991)"
       x1="46.079639"
       y1="930.92523"
       x2="62.693504"
       y2="930.92523" />
    <linearGradient
       xlink:href="#linearGradient985"
       id="linearGradient2935"
       gradientUnits="userSpaceOnUse"
       gradientTransform="matrix(3.6666673,0,0,0.62500034,3557.998,123.875)"
       x1="-916.23309"
       y1="-34.872829"
       x2="-907.31018"
       y2="-34.872829" />
    <linearGradient
       xlink:href="#linearGradient13913"
       id="linearGradient13915"
       x1="41"
       y1="20"
       x2="41"
       y2="12"
       gradientUnits="userSpaceOnUse" />
    <linearGradient
       xlink:href="#linearGradient19900"
       id="linearGradient19902"
       x1="25.999996"
       y1="20"
       x2="25.999996"
       y2="12"
       gradientUnits="userSpaceOnUse" />
    <radialGradient
       r="6"
       fy="11.99998"
       fx="77"
       cy="11.99998"
       cx="77"
       gradientTransform="matrix(-3.5062772,-0.00946642,0.00944943,-3.4999905,297.86999,82.728576)"
       gradientUnits="userSpaceOnUse"
       id="radialGradient994-3-3-1-3"
       xlink:href="#linearGradient985" />
    <radialGradient
       r="6"
       fy="11.99998"
       fx="77"
       cy="11.99998"
       cx="77"
       gradientTransform="matrix(-0.00946642,3.5062779,-3.4999905,-0.00944943,82.728733,-229.87005)"
       gradientUnits="userSpaceOnUse"
       id="radialGradient994-3-5-5"
       xlink:href="#linearGradient985" />
    <radialGradient
       r="6"
       fy="11.99998"
       fx="77"
       cy="11.99998"
       cx="77"
       gradientTransform="matrix(0.00946641,-3.5062777,3.4999908,0.00944943,-14.728734,297.87003)"
       gradientUnits="userSpaceOnUse"
       id="radialGradient994-3-35"
       xlink:href="#linearGradient985" />
    <radialGradient
       r="6"
       fy="11.99998"
       fx="77"
       cy="11.99998"
       cx="77"
       gradientTransform="matrix(3.5062779,0.00946641,-0.00944944,3.4999907,-229.87006,-14.728732)"
       gradientUnits="userSpaceOnUse"
       id="radialGradient994-3-3-9"
       xlink:href="#linearGradient985" />
    <linearGradient
       xlink:href="#linearGradient985"
       id="linearGradient1"
       gradientUnits="userSpaceOnUse"
       gradientTransform="matrix(2.3333339,0,0,0.37500021,2178.1806,47.125003)"
       x1="-916.23309"
       y1="-34.872829"
       x2="-907.31018"
       y2="-34.872829" />
    <linearGradient
       xlink:href="#linearGradient985"
       id="linearGradient2"
       gradientUnits="userSpaceOnUse"
       gradientTransform="matrix(1.2546776,0,0,0.37295731,-85.519445,-381.76397)"
       x1="46.00642"
       y1="930.81604"
       x2="62.620281"
       y2="930.81604" />
    <linearGradient
       xlink:href="#linearGradient985"
       id="linearGradient3"
       gradientUnits="userSpaceOnUse"
       gradientTransform="matrix(1.2464973,0,0,0.37169563,-17.050327,-312.6078)"
       x1="46.079639"
       y1="930.92523"
       x2="62.693504"
       y2="930.92523" />
    <linearGradient
       xlink:href="#linearGradient19900"
       id="linearGradient4"
       gradientUnits="userSpaceOnUse"
       x1="25.999996"
       y1="20"
       x2="25.999996"
       y2="12" />
    <linearGradient
       xlink:href="#linearGradient13913"
       id="linearGradient5"
       gradientUnits="userSpaceOnUse"
       x1="41"
       y1="20"
       x2="41"
       y2="12" />
    <linearGradient
       xlink:href="#linearGradient985"
       id="linearGradient6"
       gradientUnits="userSpaceOnUse"
       gradientTransform="matrix(2.112517,0,0,0.53246625,1909.1575,-17.844383)"
       x1="-916.87653"
       y1="-35.090481"
       x2="-907.02106"
       y2="-35.090481" />
  </defs>
  <rect
     id="hint-tile-center"
     style="opacity:0.0861162;fill:#008080;stroke-width:0.92582"
     width="10"
     height="10"
     x="75"
     y="0" />
  <g
     id="mask-center"
     transform="matrix(0.62962713,0,0,0.6000063,-30.222103,1.1991551)">
    <path
       id="m-center"
       d="m 92.000007,177.99954 v 19.99979 h 20.000003 v -19.99979 z"
       style="color:#24273a;fill:#31363b;fill-opacity:1;stroke-width:1.24999;stop-color:#24273a" />
  </g>
  <g
     id="mask-bottomleft"
     transform="matrix(0.62962713,0,0,0.62962713,-30.925715,-3.6658821)">
    <path
       id="m-degrade-bl"
       d="m 48.000056,241.99954 h 44.00001 v -21.98846 c -14.02935,0.14529 -22.323064,-7.02644 -22.000064,-21.98892 H 48.000056 Z"
       style="opacity:0.01;fill:url(#radialGradient994-3-3-1-5);fill-opacity:1;fill-rule:evenodd;stroke:none;stroke-width:3.66573px;stroke-linecap:butt;stroke-linejoin:miter;stroke-opacity:1" />
    <path
       style="color:#24273a;display:inline;fill:#31363b;fill-opacity:1;stroke-width:1.00001;stop-color:#24273a"
       d="m 70.000041,199.47733 c 0,12.89082 7.73438,20.52218 20.624996,20.52053 l 1.374993,0.002 V 197.99954 H 70.000041 Z"
       id="m-fond-bl" />
  </g>
  <g
     id="mask-bottomright"
     transform="matrix(0.62962713,0,0,0.62962713,-29.518239,-3.6661717)">
    <path
       id="m-degrade-br"
       d="m 155.99995,241.99848 v -44 h -21.97742 c 0,15.00129 -7.00717,22.00129 -22.02258,22.00129 v 21.99871 z"
       style="opacity:0.01;fill:url(#radialGradient994-3-5-6);fill-opacity:1;fill-rule:evenodd;stroke:none;stroke-width:3.66668px;stroke-linecap:butt;stroke-linejoin:miter;stroke-opacity:1" />
    <path
       style="color:#24273a;display:inline;fill:#31363b;fill-opacity:1;stroke-width:0.999995;stop-color:#24273a"
       d="m 113.57795,219.99976 c 12.89064,0 20.422,-7.63429 20.42034,-20.52478 L 134,198 h -22 v 21.99976 z"
       id="m-fond-br" />
  </g>
  <g
     id="mask-bottom"
     transform="matrix(0.62962713,0,0,0.62962713,-30.221967,-3.6661717)"
     style="display:inline">
    <rect
       y="92"
       x="220.0002"
       height="20"
       width="22"
       id="m-degrade-b"
       style="opacity:0.01;fill:url(#linearGradient2935);fill-opacity:1;stroke:none;stroke-width:1.51383;paint-order:markers fill stroke"
       transform="matrix(0,1,1,0,0,0)" />
    <path
       style="display:inline;color:#24273a;fill:#31363b;fill-opacity:1;stroke-width:1.11802;stop-color:#24273a"
       d="m 92,198 v 21.99976 H 111.99999 112 V 198 Z"
       id="m-fond-b" />
  </g>
  <g
     id="mask-left"
     transform="matrix(0.62962713,0,0,0.59958373,-30.925696,1.2740961)">
    <rect
       y="-198.01389"
       x="-70"
       height="20"
       width="22"
       id="m-degrade-l"
       style="opacity:0.01;fill:url(#linearGradient2931);fill-opacity:1;stroke:none;stroke-width:1.10704"
       transform="scale(-1)" />
    <path
       id="m-fond-l"
       d="m 70,178 v 20 h 22 v -20 z"
       style="color:#24273a;display:inline;fill:#31363b;fill-opacity:1;stroke-width:1.11826;stop-color:#24273a" />
  </g>
  <g
     id="mask-right"
     transform="matrix(0.62962713,0,0,0.60007796,-29.518239,1.1847145)"
     style="display:inline">
    <rect
       y="177.99977"
       x="134.00008"
       height="20"
       width="22"
       id="m-degrade-r"
       style="opacity:0.01;fill:url(#linearGradient2933);fill-opacity:1;stroke:none;stroke-width:1.10156" />
    <path
       style="display:inline;color:#24273a;fill:#31363b;fill-opacity:1;stroke-width:1.11805;stop-color:#24273a"
       d="m 133.99998,178 v 20.00073 H 112 V 178 Z"
       id="m-fond-r" />
  </g>
  <g
     id="mask-topleft"
     transform="matrix(0.62962713,0,0,0.62962713,-30.925695,-5.0735536)">
    <path
       id="m-degrade-tl"
       d="m 48.000002,133.99977 v 44 h 22 c 0,-15.3 7.1,-22 22,-22 v -22 z"
       style="display:inline;opacity:0.01;fill:url(#radialGradient994-3-36);fill-opacity:1;fill-rule:evenodd;stroke:none;stroke-width:3.66668px;stroke-linecap:butt;stroke-linejoin:miter;stroke-opacity:1" />
    <path
       style="color:#24273a;display:inline;fill:#31363b;fill-opacity:1;stroke-width:0.999995;stop-color:#24273a"
       d="m 90.122002,156.00012 c -12.890626,0 -20.121957,7.63429 -20.1203,20.52478 l -0.0017,1.47498 h 21.999997 v -21.99976 z"
       id="m-fond-tl" />
  </g>
  <g
     id="mask-topright"
     transform="matrix(0.62962713,0,0,0.62962713,-29.518239,-5.0738306)">
    <path
       id="m-degrade-tr"
       d="M 155.99989,133.99977 H 111.9999 v 21.97736 C 126,155.99977 134,162.98411 134,177.99839 h 21.99989 z"
       style="opacity:0.01;fill:url(#radialGradient994-3-3-3);fill-opacity:1;fill-rule:evenodd;stroke:none;stroke-width:3.66662px;stroke-linecap:butt;stroke-linejoin:miter;stroke-opacity:1" />
    <path
       style="color:#24273a;display:inline;fill:#31363b;fill-opacity:1;stroke-width:1;stop-color:#24273a"
       d="m 133.99998,176.52253 c 0,-12.89082 -7.73437,-20.52218 -20.62499,-20.52053 L 112,156 v 22.00032 h 21.99998 z"
       id="m-fond-tr" />
  </g>
  <g
     id="mask-top"
     transform="matrix(0.60000471,0,0,0.62962713,-27.200495,-5.0735473)">
    <rect
       y="-111.99995"
       x="-155.99977"
       height="20"
       width="22"
       id="rect1"
       style="display:inline;opacity:0.01;fill:url(#linearGradient2929);fill-opacity:1;stroke:none;stroke-width:1.44205;paint-order:markers fill stroke"
       transform="matrix(0,-1,-1,0,0,0)" />
    <path
       style="color:#24273a;display:inline;fill:#31363b;fill-opacity:1;stroke-width:1.11802;stop-color:#24273a"
       d="m 92,156 v 21.99976 h 20 V 156 Z"
       id="path1" />
  </g>
  <g
     id="decoration-inactive-bottomleft"
     transform="translate(0.2690643,-83.000034)">
    <path
       style="display:inline;fill:#31363b;fill-opacity:1;stroke-width:0.63637"
       d="m 14,40 c 0,10 4,14 14,14 v 0 -14 z"
       id="fond-bl-0" />
    <path
       id="degrade-bl-9"
       d="M 0,67.999852 H 28 V 54 C 18,54 14,50 13.999963,39.999852 H 0 Z"
       style="opacity:0.7;fill:url(#radialGradient994-3-3-1-3);fill-opacity:1;fill-rule:evenodd;stroke:none;stroke-width:2.33334px;stroke-linecap:butt;stroke-linejoin:miter;stroke-opacity:1" />
  </g>
  <g
     id="decoration-inactive-bottomright"
     transform="translate(2.2690643,-83.000034)">
    <path
       style="display:inline;fill:#31363b;fill-opacity:1;stroke-width:0.636358"
       d="m 40,54 c 10,0 14,-4 14,-14 v 0 H 40 Z"
       id="fond-br-6" />
    <path
       id="degrade-br-0"
       d="M 68,68 V 40 H 54.014368 C 54,50 50,54 40,54.000823 V 68 Z"
       style="display:inline;opacity:0.7;fill:url(#radialGradient994-3-5-5);fill-opacity:1;fill-rule:evenodd;stroke:none;stroke-width:2.33334px;stroke-linecap:butt;stroke-linejoin:miter;stroke-opacity:1" />
  </g>
  <g
     id="decoration-inactive-bottom"
     transform="translate(1.2690643,-83.000034)">
    <rect
       y="28"
       x="54.000034"
       height="12"
       width="14"
       id="degrade-b-2"
       style="opacity:0.7;fill:url(#linearGradient1);fill-opacity:1;stroke:none;stroke-width:0.935416;paint-order:markers fill stroke"
       transform="matrix(0,1,1,0,0,0)" />
    <path
       style="fill:#31363b;fill-opacity:1;stroke-width:0.690846"
       d="M 28,40 V 54 H 39.999999 40 V 40 Z"
       id="fond-b-6" />
  </g>
  <g
     id="decoration-inactive-center"
     transform="translate(1.2690643,-84.000034)">
    <path
       id="center-8"
       d="M 28,28 V 40 H 40.000001 V 28 Z"
       style="fill:#31363b;fill-opacity:1;stroke-width:0.750018" />
  </g>
  <g
     id="decoration-inactive-left"
     transform="translate(0.2662233,-84.000034)">
    <rect
       y="-40"
       x="-14.002841"
       height="12"
       width="14"
       id="degrade-l-9"
       style="display:inline;opacity:0.7;fill:url(#linearGradient2);fill-opacity:1;stroke:none;stroke-width:0.684057"
       transform="scale(-1)" />
    <path
       id="fond-l-2"
       d="m 14.002841,28 v 12 h 14 V 28 Z"
       style="fill:#31363b;fill-opacity:1;stroke-width:0.690984" />
  </g>
  <g
     id="decoration-inactive-right"
     transform="translate(2.2690643,-84.000034)">
    <rect
       y="28"
       x="54"
       height="12"
       width="14"
       id="degrade-r-2"
       style="display:inline;opacity:0.7;fill:url(#linearGradient3);fill-opacity:1;stroke:none;stroke-width:0.68067" />
    <path
       style="display:inline;fill:#31363b;fill-opacity:1;stroke-width:0.690846"
       d="M 54,28 V 40 H 40 V 28 Z"
       id="fond-r-3" />
  </g>
  <g
     id="decoration-inactive-topleft"
     transform="translate(0.2690703,-85.000034)">
    <path
       id="degrade-tl-5"
       d="M 0,0 V 28 H 14 C 14,18 18,14 28,13.999999 V 0 Z"
       style="display:inline;opacity:0.7;fill:url(#radialGradient994-3-35);fill-opacity:1;fill-rule:evenodd;stroke:none;stroke-width:2.33335px;stroke-linecap:butt;stroke-linejoin:miter;stroke-opacity:1" />
    <path
       style="display:inline;fill:#31363b;fill-opacity:1;stroke-width:0.636368"
       d="m 28,14 c -9.926544,0 -14,4 -14,14 v 0 H 27.999994 V 14 Z"
       id="fond-tl-9" />
    <path
       id="bord-tl-2"
       style="display:inline;fill:url(#linearGradient4);fill-opacity:1;stroke-width:1.07689"
       d="m 28,14 c -9,0 -14,3 -14,14 v 0 h 1 v 0 C 15,18 19,15 27.9997,15 v 0 L 28,14.000441 Z" />
  </g>
  <g
     id="decoration-inactive-topright"
     transform="translate(2.2690643,-85.000034)">
    <path
       id="degrade-tr-8"
       d="M 68,0 H 40 V 13.986033 C 50,14 54,18 54.000067,28 H 68 Z"
       style="display:inline;opacity:0.7;fill:url(#radialGradient994-3-3-9);fill-opacity:1;fill-rule:evenodd;stroke:none;stroke-width:2.33334px;stroke-linecap:butt;stroke-linejoin:miter;stroke-opacity:1" />
    <path
       style="display:inline;fill:#31363b;fill-opacity:1;stroke-width:0.636366"
       d="M 54,28 C 54,18 50,14 40,14 v 0 14 z"
       id="fond-tr-9" />
    <path
       id="bord-tr-7"
       style="display:inline;fill:url(#linearGradient5);fill-opacity:1;stroke-width:1.07689"
       d="M 54,28 C 54,19 51,14 40,14 v 0 1 0 c 10,0 13,4 13,12.9997 v 0 L 53.999559,28 Z" />
  </g>
  <g
     id="decoration-inactive-top"
     transform="matrix(0.70588047,0,0,1,9.5043458,-85.000034)"
     style="display:inline">
    <path
       style="display:inline;fill:#31363b;fill-opacity:1;stroke-width:0.822271"
       d="m 27.999783,13.999999 v 14 h 17.000355 v -14 z"
       id="fond-t-6" />
    <rect
       y="-45.000137"
       x="-14"
       height="17.00036"
       width="14"
       id="degrade-t-1"
       style="display:inline;opacity:0.7;fill:url(#linearGradient6);fill-opacity:1;stroke:none;stroke-width:1.06059;paint-order:markers fill stroke"
       transform="matrix(0,-1,-1,0,0,0)" />
    <path
       style="display:inline;fill:#404448;fill-opacity:0.836701;stroke:none;stroke-width:2.67475;stroke-linecap:round;stroke-linejoin:round;stroke-miterlimit:4;stroke-dasharray:none;stroke-dashoffset:1.0878;stroke-opacity:1"
       d="m 27.999938,13.999999 v 1 h 17.000325 l 3.4e-5,-0.993546 z"
       id="bord-t-9" />
  </g>
  <g
     id="decoration-bottomleft"
     transform="translate(-1,1)">
    <path
       style="display:inline;fill:#31363b;fill-opacity:1;stroke-width:0.63637"
       d="m 14,40 c 0,10 4,14 14,14 v 0 -14 z"
       id="fond-bl" />
    <path
       id="degrade-bl"
       d="M 0,67.999852 H 28 V 54 C 18,54 14,50 13.999963,39.999852 H 0 Z"
       style="opacity:0.7;fill:url(#radialGradient994-3-3-1);fill-opacity:1;fill-rule:evenodd;stroke:none;stroke-width:2.33334px;stroke-linecap:butt;stroke-linejoin:miter;stroke-opacity:1" />
  </g>
  <g
     id="decoration-bottomright"
     transform="translate(1,1)">
    <path
       style="display:inline;fill:#31363b;fill-opacity:1;stroke-width:0.636358"
       d="m 40,54 c 10,0 14,-4 14,-14 v 0 H 40 Z"
       id="fond-br" />
    <path
       id="degrade-br"
       d="M 68,68 V 40 H 54.014368 C 54,50 50,54 40,54.000823 V 68 Z"
       style="display:inline;opacity:0.7;fill:url(#radialGradient994-3-5);fill-opacity:1;fill-rule:evenodd;stroke:none;stroke-width:2.33334px;stroke-linecap:butt;stroke-linejoin:miter;stroke-opacity:1" />
  </g>
  <g
     id="decoration-bottom"
     transform="translate(0,1)">
    <rect
       y="28"
       x="54.000034"
       height="12"
       width="14"
       id="degrade-b"
       style="opacity:0.7;fill:url(#linearGradient2064);fill-opacity:1;stroke:none;stroke-width:0.935416;paint-order:markers fill stroke"
       transform="matrix(0,1,1,0,0,0)" />
    <path
       style="fill:#31363b;fill-opacity:1;stroke-width:0.690846"
       d="M 28,40 V 54 H 39.999999 40 V 40 Z"
       id="fond-b" />
  </g>
  <g
     id="decoration-center">
    <path
       id="center"
       d="M 28,28 V 40 H 40.000001 V 28 Z"
       style="fill:#31363b;fill-opacity:1;stroke-width:0.750018" />
  </g>
  <g
     id="decoration-left"
     transform="translate(-1.002841)">
    <rect
       y="-40"
       x="-14.002841"
       height="12"
       width="14"
       id="degrade-l"
       style="display:inline;opacity:0.7;fill:url(#linearGradient1874);fill-opacity:1;stroke:none;stroke-width:0.684057"
       transform="scale(-1)" />
    <path
       id="fond-l"
       d="m 14.002841,28 v 12 h 14 V 28 Z"
       style="fill:#31363b;fill-opacity:1;stroke-width:0.690984" />
  </g>
  <g
     id="decoration-right"
     transform="translate(1)">
    <rect
       y="28"
       x="54"
       height="12"
       width="14"
       id="degrade-r"
       style="display:inline;opacity:0.7;fill:url(#linearGradient4950);fill-opacity:1;stroke:none;stroke-width:0.68067" />
    <path
       style="display:inline;fill:#31363b;fill-opacity:1;stroke-width:0.690846"
       d="M 54,28 V 40 H 40 V 28 Z"
       id="fond-r" />
  </g>
  <g
     id="decoration-topleft"
     transform="translate(-0.999994,-1)">
    <path
       id="degrade-tl"
       d="M 0,0 V 28 H 14 C 14,18 18,14 28,13.999999 V 0 Z"
       style="display:inline;opacity:0.7;fill:url(#radialGradient994-3);fill-opacity:1;fill-rule:evenodd;stroke:none;stroke-width:2.33335px;stroke-linecap:butt;stroke-linejoin:miter;stroke-opacity:1" />
    <path
       style="display:inline;fill:#31363b;fill-opacity:1;stroke-width:0.636368"
       d="m 28,14 c -9.926544,0 -14,4 -14,14 v 0 H 27.999994 V 14 Z"
       id="fond-tl" />
    <path
       id="bord-tl"
       style="display:inline;fill:url(#linearGradient19902);fill-opacity:1;stroke-width:1.07689"
       d="m 28,14 c -9,0 -14,3 -14,14 v 0 h 1 v 0 C 15,18 19,15 27.9997,15 v 0 L 28,14.000441 Z" />
  </g>
  <g
     id="decoration-topright"
     transform="translate(1,-1)">
    <path
       id="degrade-tr"
       d="M 68,0 H 40 V 13.986033 C 50,14 54,18 54.000067,28 H 68 Z"
       style="display:inline;opacity:0.7;fill:url(#radialGradient994-3-3);fill-opacity:1;fill-rule:evenodd;stroke:none;stroke-width:2.33334px;stroke-linecap:butt;stroke-linejoin:miter;stroke-opacity:1" />
    <path
       style="display:inline;fill:#31363b;fill-opacity:1;stroke-width:0.636366"
       d="M 54,28 C 54,18 50,14 40,14 v 0 14 z"
       id="fond-tr" />
    <path
       id="bord-tr"
       style="display:inline;fill:url(#linearGradient13915);fill-opacity:1;stroke-width:1.07689"
       d="M 54,28 C 54,19 51,14 40,14 v 0 1 0 c 10,0 13,4 13,12.9997 v 0 L 53.999559,28 Z" />
  </g>
  <g
     id="decoration-top"
     transform="matrix(0.70588047,0,0,1,8.2352815,-1)"
     style="display:inline">
    <path
       style="display:inline;fill:#31363b;fill-opacity:1;stroke-width:0.822271"
       d="m 27.999783,13.999999 v 14 h 17.000355 v -14 z"
       id="fond-t" />
    <rect
       y="-45.000137"
       x="-14"
       height="17.00036"
       width="14"
       id="degrade-t"
       style="display:inline;opacity:0.7;fill:url(#linearGradient4920);fill-opacity:1;stroke:none;stroke-width:1.06059;paint-order:markers fill stroke"
       transform="matrix(0,-1,-1,0,0,0)" />
    <path
       style="display:inline;fill:currentColor;fill-opacity:1;stroke:none;stroke-width:2.67475;stroke-linecap:round;stroke-linejoin:round;stroke-miterlimit:4;stroke-dasharray:none;stroke-dashoffset:1.0878;stroke-opacity:1"
       d="m 27.999796,13.999999 v 1 h 17.000325 l 3.4e-5,-0.993546 z"
       id="bord-couleur-shema"
       class="ColorScheme-Highlight" />
    <path
       style="fill:#404448;fill-opacity:0.836701;stroke:none;stroke-width:2.67475;stroke-linecap:round;stroke-linejoin:round;stroke-miterlimit:4;stroke-dasharray:none;stroke-dashoffset:1.0878;stroke-opacity:1"
       d="m 27.999938,13.999999 v 1 h 17.000325 l 3.4e-5,-0.993546 z"
       id="bord-t" />
  </g>
</svg>
